<svg xmlns="http://www.w3.org/2000/svg"><symbol id="behance" viewBox="0 0 455 455"><g fill-rule="evenodd" clip-rule="evenodd"><path d="M181.289 242.565c-5.597-4.246-13.062-6.358-22.245-6.358h-46.379v53.356h45.524c4.211 0 8.205-.373 11.963-1.214 3.815-.834 7.199-2.156 10.052-4.11 2.853-1.879 5.216-4.455 6.934-7.731 1.724-3.247 2.55-7.465 2.55-12.559 0-9.988-2.809-17.076-8.399-21.384zm-6.683-40.911c4.907-3.582 7.286-9.502 7.286-17.621 0-4.509-.79-8.235-2.379-11.126-1.645-2.892-3.822-5.155-6.574-6.739-2.73-1.649-5.813-2.788-9.391-3.402-3.513-.687-7.199-.956-10.972-.956h-39.913v45.276h43.168c7.56 0 13.818-1.793 18.775-5.432z"/><path d="M0 0v455h455V0H0zm275.636 141.802h78.54v19.12h-78.54v-19.12zm-49.031 149.905c-3.793 7.204-8.959 13.041-15.326 17.546-6.416 4.545-13.788 7.878-22.044 10.048-8.162 2.17-16.64 3.262-25.32 3.262H70V128.804h91.351c9.269 0 17.632.801 25.277 2.458 7.602 1.613 14.09 4.304 19.572 7.993 5.396 3.69 9.621 8.597 12.645 14.78 2.953 6.09 4.434 13.717 4.434 22.734 0 9.754-2.213 17.901-6.639 24.414-4.462 6.502-11.014 11.838-19.773 15.98 11.927 3.427 20.758 9.463 26.613 18.045 5.885 8.641 8.766 18.979 8.766 31.101-.001 9.825-1.883 18.286-5.641 25.398zm158.15-30.015H283.518c0 11.09 3.75 21.591 9.542 27.227 5.769 5.637 14.111 8.471 24.917 8.471 7.774 0 14.492-1.965 20.125-5.881 5.583-3.912 8.981-8.094 10.296-12.437h33.935c-5.453 16.888-13.73 28.944-25.018 36.202-11.158 7.289-24.768 10.921-40.624 10.921-11.051 0-20.995-1.789-29.926-5.313-8.924-3.568-16.382-8.568-22.654-15.085-6.115-6.549-10.864-14.287-14.248-23.38-3.348-9.043-5.037-19.055-5.037-29.905 0-10.49 1.753-20.291 5.18-29.348 3.499-9.089 8.335-16.931 14.694-23.509 6.373-6.614 13.931-11.834 22.733-15.645 8.802-3.798 18.508-5.709 29.258-5.709 11.869 0 22.266 2.284 31.176 6.937 8.88 4.588 16.159 10.807 21.878 18.592 5.719 7.771 9.786 16.659 12.33 26.628 2.522 9.952 3.406 20.349 2.68 31.234z"/><path d="M315.534 207.398c-6.157 0-11.252 1.035-15.332 3.147-3.988 2.084-7.257 4.677-9.757 7.731-2.486 3.104-4.182 6.38-5.166 9.883-.991 3.413-1.58 6.51-1.76 9.248h62.697c-.92-9.826-4.283-17.09-8.881-22.198-4.578-5.07-12.338-7.811-21.801-7.811z"/></g></symbol><symbol id="linkedin" viewBox="0 0 382 382"><path fill="#0077b7" d="M347.445 0H34.555C15.471 0 0 15.471 0 34.555v312.889C0 366.529 15.471 382 34.555 382h312.889C366.529 382 382 366.529 382 347.444V34.555C382 15.471 366.529 0 347.445 0zM118.207 329.844c0 5.554-4.502 10.056-10.056 10.056H65.345c-5.554 0-10.056-4.502-10.056-10.056V150.403c0-5.554 4.502-10.056 10.056-10.056h42.806c5.554 0 10.056 4.502 10.056 10.056v179.441zM86.748 123.432c-22.459 0-40.666-18.207-40.666-40.666S64.289 42.1 86.748 42.1s40.666 18.207 40.666 40.666-18.206 40.666-40.666 40.666zM341.91 330.654a9.247 9.247 0 0 1-9.246 9.246H286.73a9.247 9.247 0 0 1-9.246-9.246v-84.168c0-12.556 3.683-55.021-32.813-55.021-28.309 0-34.051 29.066-35.204 42.11v97.079a9.246 9.246 0 0 1-9.246 9.246h-44.426a9.247 9.247 0 0 1-9.246-9.246V149.593a9.247 9.247 0 0 1 9.246-9.246h44.426a9.247 9.247 0 0 1 9.246 9.246v15.655c10.497-15.753 26.097-27.912 59.312-27.912 73.552 0 73.131 68.716 73.131 106.472v86.846z"/></symbol></svg>